<svg xmlns="http://www.w3.org/2000/svg" xmlns:xlink="http://www.w3.org/1999/xlink" version="1.1" id="Capa_1" x="0px" y="0px" width="100px" height="100px" viewBox="5.0 -10.0 100.0 135.0" enable-background="new 0 0 100 100" xml:space="preserve">
<g id="Capa_36">
  <path fill="white" d="M81.072,18.467L68.305,4.788l2.223-1.752l-1.737-2.12l-0.276-0.342L68.042,0l-2.349,1.993l-1.164-1.248l-4.717,4.118   l1.008,1.266l-3.684,3.125c-0.337-0.598-0.736-1.17-1.217-1.7c-3.455-3.811-9.356-4.108-13.177-0.65   c-3.825,3.465-4.115,9.363-0.66,13.181c0.421,0.465,0.879,0.875,1.365,1.236L18.79,41.737l0.031,0.038   c-1.73,1.688-0.5,4.523,0.474,7.668c1.008,3.261,2.478,4.741,5.585,4.176c3.113-0.567,3.348-3.25,1.595-5.388   c-1.752-2.143-2.567-3.138-3.098-3.788c-1.09-1.33-2.42-1.647-2.889-1.923L45.37,22.408c3.241,1.368,7.118,0.847,9.901-1.674   c2.332-2.111,3.344-5.132,2.994-8.036l4.781-3.769l7.932,9.975l-14.521,3.94c-1.613,0.315-3.148,1.105-4.337,2.416   c-2.863,3.15-2.702,7.976,0.304,10.931c0.004,0.003,0.006,0.008,0.01,0.01c0.024,0.03,0.069,0.09,0.155,0.21   c0.479,0.688,1.774,2.72,2.429,6.968c0.606,3.985,0.901,6.841,1.045,8.651c0.074,0.907,0.106,1.55,0.123,1.939   c0.015,0.397,0.01,0.433,0.015,0.439l-4.55,23.465L41.32,94.896l7.375,4.761l11.745-17.199c0.338-0.526,0.561-1.063,0.686-1.67   l1.907-9.151L65.594,100l8.034-0.47l-1.685-44.563c0.017-0.185,0.047-0.369,0.047-0.558c0-0.466-0.04-4.72-1.36-13.411   c-0.87-5.838-2.767-9.941-4.448-12.614l12.955-3.515c1.309-0.355,2.35-1.36,2.744-2.663C82.271,20.907,81.966,19.489,81.072,18.467   z"/>
  <path  fill="green" d="M35.52,93.102c-0.089-1.5-0.001-3.136,0.372-4.906c0,0-3.408,3.248-3.567,8.154c-0.582,0.975-1.007,2.213-1.249,3.65    h6.347c-0.726-1.409-1.452-3.26-1.77-5.541c0.52-0.77,1.112-1.545,1.883-2.314C37.536,92.145,36.646,92.398,35.52,93.102z     M90.874,100h1.976c0.601-3.215,1.969-8.234,4.996-11.9C97.846,88.1,92.674,91.375,90.874,100z M90.24,81.782    c-4.584,2.229-6.74,6.645-7.754,10.571c-0.916-1.178-2.031-2.31-3.43-3.338c0,0,0.629,1.328,1.166,3.39    c-1.029,0.43-3.017,1.517-4.443,3.825c0.918-4.551,2.865-11.154,6.916-16.066c0,0-8.029,5.048-10.191,18.568    c-0.068-4.273-1.393-10.013-7.057-14.188c0,0,2.619,5.507,1.675,11.567c-1.069-1.482-2.535-3.027-4.414-4.108    c1.302-3.026,2.796-5.036,2.796-5.036c-1.986,1.063-3.561,2.529-4.824,4.143c-0.228-0.073-0.447-0.158-0.686-0.215    c0,0,0.209,0.182,0.498,0.441c-1.551,2.048-2.592,4.307-3.295,6.314c-0.016-0.033-0.038-0.067-0.057-0.106    c2.654-10.228-1.635-18.415-1.635-18.415c1.053,5.393,0.307,10.516-0.872,14.572c-3.002-3.333-6.559-4.313-6.559-4.313    c2.711,2.711,4.335,5.5,5.319,7.889c-0.418,1.053-0.838,1.957-1.213,2.723h10.877c-0.158-1.354-0.074-2.841,0.418-4.471    c0,0-1.279,0.843-2.468,2.297c0.249-1.663,0.696-3.242,1.224-4.651c1.381,1.63,2.896,4.023,3.418,6.825h11.098    c0.249-1.494,1.036-4.348,3.577-7.193c0.476,1.965,0.809,4.512,0.485,7.193h4.959c-0.035-0.21-0.035-0.402-0.08-0.623L87.428,100    h1.691c2.711-9.639-1.663-11.369-1.663-11.369c1.76,4.844-1.063,9.299-1.84,10.391c-0.261-1.154-0.64-2.332-1.188-3.51    C84.592,86.372,90.24,81.782,90.24,81.782z M43.438,87.216c1.617,4.448,0.107,8.624-1.171,11.041    c-4.832-9.101,2.67-15.483,2.67-15.483c-9.805,5.394-7.275,14.623-6.316,17.228h7.224C48.474,89.189,43.438,87.216,43.438,87.216z     M28.963,92.507c-0.392-0.832-0.892-1.646-1.46-2.45c1.044-1.074,1.79-1.681,1.79-1.681c-0.846,0.209-1.633,0.503-2.393,0.843    c-0.886-1.098-1.958-2.15-3.27-3.123c0,0,0.781,1.657,1.341,4.131c-1.546,0.963-2.894,2.133-4.028,3.379    c-0.693-0.635-1.473-1.211-2.339-1.691c0.656-1.342,1.446-2.648,2.411-3.814c0,0-1.591,1.02-3.316,3.373    c-0.527-0.231-1.072-0.437-1.658-0.576c0,0,0.525,0.44,1.233,1.164c-0.55,0.821-1.096,1.795-1.603,2.903    C11.711,79.189,2.154,73.158,2.154,73.158c5.737,6.949,8.496,16.293,9.799,22.744c-2.804-4.517-7.264-5.75-7.264-5.75    c3.609,3.611,5.055,7.363,5.653,9.848h11.139c0.054-0.191,0.09-0.396,0.151-0.589c0.046,0.192,0.058,0.396,0.098,0.589h8.941    c-0.024-0.838-0.085-1.709-0.229-2.632c0.808-4.517,2.725-11.867,7.135-17.204C37.578,80.164,32.086,83.65,28.963,92.507z     M16.681,99.949c-0.086-0.572-0.199-1.104-0.3-1.658c0.38-1.619,0.93-3.471,1.73-5.314c0.519,0.596,1.066,1.303,1.596,2.111    C18.311,96.887,17.31,98.67,16.681,99.949z M24.992,99.174c-0.396-0.82-1.031-1.98-1.914-3.181    c0.702-1.302,1.502-2.474,2.292-3.486C25.614,94.527,25.593,96.836,24.992,99.174z"/>
</g>
</svg>
